<mxfile host="app.diagrams.net" modified="2023-04-04T09:46:30.689Z" agent="5.0 (Windows NT 10.0; Win64; x64) AppleWebKit/537.36 (KHTML, like Gecko) Chrome/101.0.0.0 Safari/537.36" etag="NUWUE7h34_iODQnXL4Dw" version="20.8.18" type="github">
  <diagram name="第 1 页" id="TbepCwUMdB_krVR1JQfY">
    <mxGraphModel dx="1354" dy="565" grid="1" gridSize="10" guides="1" tooltips="1" connect="1" arrows="1" fold="1" page="1" pageScale="1" pageWidth="827" pageHeight="1169" math="0" shadow="0">
      <root>
        <mxCell id="0" />
        <mxCell id="1" parent="0" />
        <mxCell id="D5Xexh5Yaep0bFIX772I-7" value="" style="edgeStyle=orthogonalEdgeStyle;rounded=0;orthogonalLoop=1;jettySize=auto;html=1;" edge="1" parent="1" source="D5Xexh5Yaep0bFIX772I-1" target="D5Xexh5Yaep0bFIX772I-2">
          <mxGeometry relative="1" as="geometry" />
        </mxCell>
        <mxCell id="D5Xexh5Yaep0bFIX772I-1" value="开始" style="strokeWidth=2;html=1;shape=mxgraph.flowchart.start_1;whiteSpace=wrap;" vertex="1" parent="1">
          <mxGeometry x="100" y="50" width="100" height="60" as="geometry" />
        </mxCell>
        <mxCell id="D5Xexh5Yaep0bFIX772I-8" value="" style="edgeStyle=orthogonalEdgeStyle;rounded=0;orthogonalLoop=1;jettySize=auto;html=1;" edge="1" parent="1" source="D5Xexh5Yaep0bFIX772I-2" target="D5Xexh5Yaep0bFIX772I-3">
          <mxGeometry relative="1" as="geometry" />
        </mxCell>
        <mxCell id="D5Xexh5Yaep0bFIX772I-2" value="判断状态：&lt;br&gt;未发布状态不能取消发布" style="rounded=1;whiteSpace=wrap;html=1;absoluteArcSize=1;arcSize=14;strokeWidth=2;" vertex="1" parent="1">
          <mxGeometry x="290" y="50" width="100" height="60" as="geometry" />
        </mxCell>
        <mxCell id="D5Xexh5Yaep0bFIX772I-9" value="" style="edgeStyle=orthogonalEdgeStyle;rounded=0;orthogonalLoop=1;jettySize=auto;html=1;" edge="1" parent="1" source="D5Xexh5Yaep0bFIX772I-3" target="D5Xexh5Yaep0bFIX772I-4">
          <mxGeometry relative="1" as="geometry" />
        </mxCell>
        <mxCell id="D5Xexh5Yaep0bFIX772I-3" value="删除编排页面" style="rounded=1;whiteSpace=wrap;html=1;absoluteArcSize=1;arcSize=14;strokeWidth=2;" vertex="1" parent="1">
          <mxGeometry x="480" y="50" width="100" height="60" as="geometry" />
        </mxCell>
        <mxCell id="D5Xexh5Yaep0bFIX772I-10" value="" style="edgeStyle=orthogonalEdgeStyle;rounded=0;orthogonalLoop=1;jettySize=auto;html=1;" edge="1" parent="1" source="D5Xexh5Yaep0bFIX772I-4" target="D5Xexh5Yaep0bFIX772I-5">
          <mxGeometry relative="1" as="geometry" />
        </mxCell>
        <mxCell id="D5Xexh5Yaep0bFIX772I-4" value="删除填报申请单" style="rounded=1;whiteSpace=wrap;html=1;absoluteArcSize=1;arcSize=14;strokeWidth=2;" vertex="1" parent="1">
          <mxGeometry x="660" y="50" width="100" height="60" as="geometry" />
        </mxCell>
        <mxCell id="D5Xexh5Yaep0bFIX772I-11" value="" style="edgeStyle=orthogonalEdgeStyle;rounded=0;orthogonalLoop=1;jettySize=auto;html=1;" edge="1" parent="1" source="D5Xexh5Yaep0bFIX772I-5" target="D5Xexh5Yaep0bFIX772I-6">
          <mxGeometry relative="1" as="geometry" />
        </mxCell>
        <mxCell id="D5Xexh5Yaep0bFIX772I-5" value="修改模板状态为：未发布" style="rounded=1;whiteSpace=wrap;html=1;absoluteArcSize=1;arcSize=14;strokeWidth=2;" vertex="1" parent="1">
          <mxGeometry x="660" y="190" width="100" height="60" as="geometry" />
        </mxCell>
        <mxCell id="D5Xexh5Yaep0bFIX772I-6" value="结束" style="strokeWidth=2;html=1;shape=mxgraph.flowchart.terminator;whiteSpace=wrap;" vertex="1" parent="1">
          <mxGeometry x="480" y="190" width="100" height="60" as="geometry" />
        </mxCell>
      </root>
    </mxGraphModel>
  </diagram>
</mxfile>
